<mxfile host="app.diagrams.net" modified="2021-06-27T13:52:31.028Z" agent="5.0 (X11; Linux x86_64) AppleWebKit/537.36 (KHTML, like Gecko) Chrome/91.0.4472.106 Safari/537.36" etag="dgbnxCNWcPGdp6rCRd_-" version="14.8.1" type="github">
  <diagram id="a49w1TagIwB3A66lQfWN" name="Page-1">
    <mxGraphModel dx="1124" dy="1394" grid="1" gridSize="10" guides="1" tooltips="1" connect="1" arrows="1" fold="1" page="1" pageScale="1" pageWidth="850" pageHeight="1100" math="0" shadow="0">
      <root>
        <mxCell id="0" />
        <mxCell id="1" parent="0" />
        <mxCell id="i6SgQi6mgNQ5JLsOrWUU-264" value="" style="edgeStyle=orthogonalEdgeStyle;rounded=0;orthogonalLoop=1;jettySize=auto;html=1;" edge="1" parent="1" source="i6SgQi6mgNQ5JLsOrWUU-259" target="i6SgQi6mgNQ5JLsOrWUU-262">
          <mxGeometry relative="1" as="geometry" />
        </mxCell>
        <mxCell id="i6SgQi6mgNQ5JLsOrWUU-281" value="" style="edgeStyle=orthogonalEdgeStyle;rounded=0;orthogonalLoop=1;jettySize=auto;html=1;" edge="1" parent="1" source="i6SgQi6mgNQ5JLsOrWUU-259">
          <mxGeometry relative="1" as="geometry">
            <mxPoint x="1941" y="466.64" as="targetPoint" />
          </mxGeometry>
        </mxCell>
        <mxCell id="i6SgQi6mgNQ5JLsOrWUU-259" value="Bob:n&lt;br&gt;Accept" style="rounded=0;whiteSpace=wrap;html=1;fillColor=#dae8fc;strokeColor=#6c8ebf;" vertex="1" parent="1">
          <mxGeometry x="1900.0900000000001" y="396.46000000000004" width="80.91" height="50" as="geometry" />
        </mxCell>
        <mxCell id="i6SgQi6mgNQ5JLsOrWUU-271" value="" style="edgeStyle=orthogonalEdgeStyle;rounded=0;orthogonalLoop=1;jettySize=auto;html=1;" edge="1" parent="1" source="i6SgQi6mgNQ5JLsOrWUU-260" target="i6SgQi6mgNQ5JLsOrWUU-261">
          <mxGeometry relative="1" as="geometry" />
        </mxCell>
        <mxCell id="i6SgQi6mgNQ5JLsOrWUU-260" value="Bob:n+2&lt;br&gt;To: Peer 2&lt;br&gt;5 ET" style="rounded=0;whiteSpace=wrap;html=1;fillColor=#dae8fc;strokeColor=#6c8ebf;" vertex="1" parent="1">
          <mxGeometry x="1900.0900000000001" y="259.02" width="80.91" height="50" as="geometry" />
        </mxCell>
        <mxCell id="i6SgQi6mgNQ5JLsOrWUU-272" value="" style="edgeStyle=orthogonalEdgeStyle;rounded=0;orthogonalLoop=1;jettySize=auto;html=1;" edge="1" parent="1" source="i6SgQi6mgNQ5JLsOrWUU-261" target="i6SgQi6mgNQ5JLsOrWUU-259">
          <mxGeometry relative="1" as="geometry" />
        </mxCell>
        <mxCell id="i6SgQi6mgNQ5JLsOrWUU-261" value="Bob:n+1&lt;br&gt;Checkpoint&lt;br&gt;20 ET" style="rounded=0;whiteSpace=wrap;html=1;fillColor=#dae8fc;strokeColor=#6c8ebf;" vertex="1" parent="1">
          <mxGeometry x="1900.0900000000001" y="326.6" width="80.91" height="50" as="geometry" />
        </mxCell>
        <mxCell id="i6SgQi6mgNQ5JLsOrWUU-262" value="Peer 1:z&lt;br&gt;To: Bob&lt;br&gt;5 ET" style="rounded=0;whiteSpace=wrap;html=1;" vertex="1" parent="1">
          <mxGeometry x="1791" y="396.46000000000004" width="80" height="50" as="geometry" />
        </mxCell>
        <mxCell id="i6SgQi6mgNQ5JLsOrWUU-268" value="" style="edgeStyle=orthogonalEdgeStyle;rounded=0;orthogonalLoop=1;jettySize=auto;html=1;" edge="1" parent="1" source="i6SgQi6mgNQ5JLsOrWUU-267" target="i6SgQi6mgNQ5JLsOrWUU-260">
          <mxGeometry relative="1" as="geometry" />
        </mxCell>
        <mxCell id="i6SgQi6mgNQ5JLsOrWUU-267" value="Peer 2:x&lt;br&gt;Accept" style="rounded=0;whiteSpace=wrap;html=1;" vertex="1" parent="1">
          <mxGeometry x="1791" y="259.02" width="80" height="50" as="geometry" />
        </mxCell>
        <mxCell id="i6SgQi6mgNQ5JLsOrWUU-270" value="" style="edgeStyle=orthogonalEdgeStyle;rounded=0;orthogonalLoop=1;jettySize=auto;html=1;" edge="1" parent="1" source="i6SgQi6mgNQ5JLsOrWUU-269" target="i6SgQi6mgNQ5JLsOrWUU-261">
          <mxGeometry relative="1" as="geometry" />
        </mxCell>
        <mxCell id="i6SgQi6mgNQ5JLsOrWUU-269" value="Gateway:y&lt;br&gt;Accept" style="rounded=0;whiteSpace=wrap;html=1;fillColor=#d5e8d4;strokeColor=#82b366;" vertex="1" parent="1">
          <mxGeometry x="1791" y="326.6" width="80" height="50" as="geometry" />
        </mxCell>
        <mxCell id="i6SgQi6mgNQ5JLsOrWUU-279" value="" style="group" vertex="1" connectable="0" parent="1">
          <mxGeometry x="1910.999999999999" y="459.18000000000006" width="60.00000000000023" height="40" as="geometry" />
        </mxCell>
        <mxCell id="i6SgQi6mgNQ5JLsOrWUU-275" value="" style="shape=waypoint;size=6;pointerEvents=1;points=[];fillColor=#ffffff;resizable=0;rotatable=0;perimeter=centerPerimeter;snapToPoint=1;rounded=0;" vertex="1" parent="i6SgQi6mgNQ5JLsOrWUU-279">
          <mxGeometry x="10.000000000000227" width="40" height="40" as="geometry" />
        </mxCell>
        <mxCell id="i6SgQi6mgNQ5JLsOrWUU-277" value="" style="shape=waypoint;size=6;pointerEvents=1;points=[];fillColor=#ffffff;resizable=0;rotatable=0;perimeter=centerPerimeter;snapToPoint=1;rounded=0;" vertex="1" parent="i6SgQi6mgNQ5JLsOrWUU-279">
          <mxGeometry x="20.000000000000227" width="40" height="40" as="geometry" />
        </mxCell>
        <mxCell id="i6SgQi6mgNQ5JLsOrWUU-278" value="" style="shape=waypoint;size=6;pointerEvents=1;points=[];fillColor=#ffffff;resizable=0;rotatable=0;perimeter=centerPerimeter;snapToPoint=1;rounded=0;" vertex="1" parent="i6SgQi6mgNQ5JLsOrWUU-279">
          <mxGeometry width="40" height="40" as="geometry" />
        </mxCell>
        <mxCell id="i6SgQi6mgNQ5JLsOrWUU-282" value="" style="edgeStyle=orthogonalEdgeStyle;rounded=0;orthogonalLoop=1;jettySize=auto;html=1;" edge="1" parent="1" source="i6SgQi6mgNQ5JLsOrWUU-284" target="i6SgQi6mgNQ5JLsOrWUU-289">
          <mxGeometry relative="1" as="geometry" />
        </mxCell>
        <mxCell id="i6SgQi6mgNQ5JLsOrWUU-283" value="" style="edgeStyle=orthogonalEdgeStyle;rounded=0;orthogonalLoop=1;jettySize=auto;html=1;" edge="1" parent="1" source="i6SgQi6mgNQ5JLsOrWUU-284">
          <mxGeometry relative="1" as="geometry">
            <mxPoint x="2308.89" y="468.71000000000004" as="targetPoint" />
          </mxGeometry>
        </mxCell>
        <mxCell id="i6SgQi6mgNQ5JLsOrWUU-284" value="Alice:m&lt;br&gt;Accept" style="rounded=0;whiteSpace=wrap;html=1;fillColor=#f8cecc;strokeColor=#b85450;" vertex="1" parent="1">
          <mxGeometry x="2267.98" y="398.5300000000001" width="80.91" height="50" as="geometry" />
        </mxCell>
        <mxCell id="i6SgQi6mgNQ5JLsOrWUU-285" value="" style="edgeStyle=orthogonalEdgeStyle;rounded=0;orthogonalLoop=1;jettySize=auto;html=1;" edge="1" parent="1" source="i6SgQi6mgNQ5JLsOrWUU-286" target="i6SgQi6mgNQ5JLsOrWUU-288">
          <mxGeometry relative="1" as="geometry" />
        </mxCell>
        <mxCell id="i6SgQi6mgNQ5JLsOrWUU-286" value="Alice:m+2&lt;br&gt;To: Peer 4&lt;br&gt;5 ET" style="rounded=0;whiteSpace=wrap;html=1;fillColor=#f8cecc;strokeColor=#b85450;" vertex="1" parent="1">
          <mxGeometry x="2267.98" y="261.09000000000003" width="80.91" height="50" as="geometry" />
        </mxCell>
        <mxCell id="i6SgQi6mgNQ5JLsOrWUU-287" value="" style="edgeStyle=orthogonalEdgeStyle;rounded=0;orthogonalLoop=1;jettySize=auto;html=1;" edge="1" parent="1" source="i6SgQi6mgNQ5JLsOrWUU-288" target="i6SgQi6mgNQ5JLsOrWUU-284">
          <mxGeometry relative="1" as="geometry" />
        </mxCell>
        <mxCell id="i6SgQi6mgNQ5JLsOrWUU-288" value="Alice:m+1&lt;br&gt;Checkpoint&lt;br&gt;5 ET" style="rounded=0;whiteSpace=wrap;html=1;fillColor=#f8cecc;strokeColor=#b85450;" vertex="1" parent="1">
          <mxGeometry x="2267.98" y="328.6700000000001" width="80.91" height="50" as="geometry" />
        </mxCell>
        <mxCell id="i6SgQi6mgNQ5JLsOrWUU-289" value="Peer 3:c&lt;br&gt;To: Alice&lt;br&gt;5 ET" style="rounded=0;whiteSpace=wrap;html=1;" vertex="1" parent="1">
          <mxGeometry x="2158.89" y="398.5300000000001" width="80" height="50" as="geometry" />
        </mxCell>
        <mxCell id="i6SgQi6mgNQ5JLsOrWUU-290" value="" style="edgeStyle=orthogonalEdgeStyle;rounded=0;orthogonalLoop=1;jettySize=auto;html=1;" edge="1" parent="1" source="i6SgQi6mgNQ5JLsOrWUU-291" target="i6SgQi6mgNQ5JLsOrWUU-286">
          <mxGeometry relative="1" as="geometry" />
        </mxCell>
        <mxCell id="i6SgQi6mgNQ5JLsOrWUU-291" value="Peer 4:a&lt;br&gt;Accept" style="rounded=0;whiteSpace=wrap;html=1;" vertex="1" parent="1">
          <mxGeometry x="2158.89" y="261.09000000000003" width="80" height="50" as="geometry" />
        </mxCell>
        <mxCell id="i6SgQi6mgNQ5JLsOrWUU-292" value="" style="edgeStyle=orthogonalEdgeStyle;rounded=0;orthogonalLoop=1;jettySize=auto;html=1;" edge="1" parent="1" source="i6SgQi6mgNQ5JLsOrWUU-293" target="i6SgQi6mgNQ5JLsOrWUU-288">
          <mxGeometry relative="1" as="geometry" />
        </mxCell>
        <mxCell id="i6SgQi6mgNQ5JLsOrWUU-293" value="Gateway:b&lt;br&gt;Accept" style="rounded=0;whiteSpace=wrap;html=1;fillColor=#d5e8d4;strokeColor=#82b366;" vertex="1" parent="1">
          <mxGeometry x="2158.89" y="328.6700000000001" width="80" height="50" as="geometry" />
        </mxCell>
        <mxCell id="i6SgQi6mgNQ5JLsOrWUU-294" value="" style="group" vertex="1" connectable="0" parent="1">
          <mxGeometry x="2278.889999999999" y="461.2500000000001" width="60.00000000000023" height="40" as="geometry" />
        </mxCell>
        <mxCell id="i6SgQi6mgNQ5JLsOrWUU-295" value="" style="shape=waypoint;size=6;pointerEvents=1;points=[];fillColor=#ffffff;resizable=0;rotatable=0;perimeter=centerPerimeter;snapToPoint=1;rounded=0;" vertex="1" parent="i6SgQi6mgNQ5JLsOrWUU-294">
          <mxGeometry x="10.000000000000227" width="40" height="40" as="geometry" />
        </mxCell>
        <mxCell id="i6SgQi6mgNQ5JLsOrWUU-296" value="" style="shape=waypoint;size=6;pointerEvents=1;points=[];fillColor=#ffffff;resizable=0;rotatable=0;perimeter=centerPerimeter;snapToPoint=1;rounded=0;" vertex="1" parent="i6SgQi6mgNQ5JLsOrWUU-294">
          <mxGeometry x="20.000000000000227" width="40" height="40" as="geometry" />
        </mxCell>
        <mxCell id="i6SgQi6mgNQ5JLsOrWUU-297" value="" style="shape=waypoint;size=6;pointerEvents=1;points=[];fillColor=#ffffff;resizable=0;rotatable=0;perimeter=centerPerimeter;snapToPoint=1;rounded=0;" vertex="1" parent="i6SgQi6mgNQ5JLsOrWUU-294">
          <mxGeometry width="40" height="40" as="geometry" />
        </mxCell>
        <mxCell id="i6SgQi6mgNQ5JLsOrWUU-310" value="" style="edgeStyle=orthogonalEdgeStyle;rounded=0;orthogonalLoop=1;jettySize=auto;html=1;" edge="1" parent="1" source="i6SgQi6mgNQ5JLsOrWUU-312" target="i6SgQi6mgNQ5JLsOrWUU-315">
          <mxGeometry relative="1" as="geometry" />
        </mxCell>
        <mxCell id="i6SgQi6mgNQ5JLsOrWUU-311" value="" style="edgeStyle=orthogonalEdgeStyle;rounded=0;orthogonalLoop=1;jettySize=auto;html=1;" edge="1" parent="1" source="i6SgQi6mgNQ5JLsOrWUU-312">
          <mxGeometry relative="1" as="geometry">
            <mxPoint x="2641.34" y="399.99" as="targetPoint" />
          </mxGeometry>
        </mxCell>
        <mxCell id="i6SgQi6mgNQ5JLsOrWUU-312" value="Bob:n&lt;br&gt;Accept" style="rounded=0;whiteSpace=wrap;html=1;fillColor=#dae8fc;strokeColor=#6c8ebf;" vertex="1" parent="1">
          <mxGeometry x="2600.4300000000003" y="329.81000000000006" width="80.91" height="50" as="geometry" />
        </mxCell>
        <mxCell id="i6SgQi6mgNQ5JLsOrWUU-313" value="" style="edgeStyle=orthogonalEdgeStyle;rounded=0;orthogonalLoop=1;jettySize=auto;html=1;" edge="1" parent="1" source="i6SgQi6mgNQ5JLsOrWUU-314" target="i6SgQi6mgNQ5JLsOrWUU-312">
          <mxGeometry relative="1" as="geometry" />
        </mxCell>
        <mxCell id="i6SgQi6mgNQ5JLsOrWUU-314" value="Bob:n+1&lt;br&gt;Checkpoint" style="rounded=0;whiteSpace=wrap;html=1;fillColor=#dae8fc;strokeColor=#6c8ebf;" vertex="1" parent="1">
          <mxGeometry x="2600.4300000000003" y="259.95000000000005" width="80.91" height="50" as="geometry" />
        </mxCell>
        <mxCell id="i6SgQi6mgNQ5JLsOrWUU-315" value="Peer 1:z&lt;br&gt;To: Bob&lt;br&gt;5 ET" style="rounded=0;whiteSpace=wrap;html=1;" vertex="1" parent="1">
          <mxGeometry x="2491.34" y="329.81000000000006" width="80" height="50" as="geometry" />
        </mxCell>
        <mxCell id="i6SgQi6mgNQ5JLsOrWUU-316" value="" style="edgeStyle=orthogonalEdgeStyle;rounded=0;orthogonalLoop=1;jettySize=auto;html=1;" edge="1" parent="1" source="i6SgQi6mgNQ5JLsOrWUU-317" target="i6SgQi6mgNQ5JLsOrWUU-314">
          <mxGeometry relative="1" as="geometry" />
        </mxCell>
        <mxCell id="i6SgQi6mgNQ5JLsOrWUU-317" value="Gateway:y&lt;br&gt;Accept" style="rounded=0;whiteSpace=wrap;html=1;fillColor=#d5e8d4;strokeColor=#82b366;" vertex="1" parent="1">
          <mxGeometry x="2491.34" y="259.95000000000005" width="80" height="50" as="geometry" />
        </mxCell>
        <mxCell id="i6SgQi6mgNQ5JLsOrWUU-318" value="" style="group" vertex="1" connectable="0" parent="1">
          <mxGeometry x="2611.3399999999992" y="392.5300000000001" width="60.00000000000023" height="40" as="geometry" />
        </mxCell>
        <mxCell id="i6SgQi6mgNQ5JLsOrWUU-319" value="" style="shape=waypoint;size=6;pointerEvents=1;points=[];fillColor=#ffffff;resizable=0;rotatable=0;perimeter=centerPerimeter;snapToPoint=1;rounded=0;" vertex="1" parent="i6SgQi6mgNQ5JLsOrWUU-318">
          <mxGeometry x="10.000000000000227" width="40" height="40" as="geometry" />
        </mxCell>
        <mxCell id="i6SgQi6mgNQ5JLsOrWUU-320" value="" style="shape=waypoint;size=6;pointerEvents=1;points=[];fillColor=#ffffff;resizable=0;rotatable=0;perimeter=centerPerimeter;snapToPoint=1;rounded=0;" vertex="1" parent="i6SgQi6mgNQ5JLsOrWUU-318">
          <mxGeometry x="20.000000000000227" width="40" height="40" as="geometry" />
        </mxCell>
        <mxCell id="i6SgQi6mgNQ5JLsOrWUU-321" value="" style="shape=waypoint;size=6;pointerEvents=1;points=[];fillColor=#ffffff;resizable=0;rotatable=0;perimeter=centerPerimeter;snapToPoint=1;rounded=0;" vertex="1" parent="i6SgQi6mgNQ5JLsOrWUU-318">
          <mxGeometry width="40" height="40" as="geometry" />
        </mxCell>
        <mxCell id="i6SgQi6mgNQ5JLsOrWUU-322" value="" style="group;fontSize=19;" vertex="1" connectable="0" parent="1">
          <mxGeometry x="1810" y="56.540000000000006" width="140" height="112" as="geometry" />
        </mxCell>
        <mxCell id="i6SgQi6mgNQ5JLsOrWUU-323" value="" style="group" vertex="1" connectable="0" parent="i6SgQi6mgNQ5JLsOrWUU-322">
          <mxGeometry x="57" y="38" width="56" height="74" as="geometry" />
        </mxCell>
        <mxCell id="i6SgQi6mgNQ5JLsOrWUU-324" value="" style="group" vertex="1" connectable="0" parent="i6SgQi6mgNQ5JLsOrWUU-323">
          <mxGeometry width="56" height="56" as="geometry" />
        </mxCell>
        <mxCell id="i6SgQi6mgNQ5JLsOrWUU-325" value="" style="shape=image;html=1;verticalAlign=top;verticalLabelPosition=bottom;labelBackgroundColor=#ffffff;imageAspect=0;aspect=fixed;image=https://cdn4.iconfinder.com/data/icons/essential-app-1/16/mobile-phone-smart-screen-128.png" vertex="1" parent="i6SgQi6mgNQ5JLsOrWUU-324">
          <mxGeometry width="56" height="56" as="geometry" />
        </mxCell>
        <mxCell id="i6SgQi6mgNQ5JLsOrWUU-326" value="" style="shape=image;html=1;verticalAlign=top;verticalLabelPosition=bottom;labelBackgroundColor=#ffffff;imageAspect=0;aspect=fixed;image=https://cdn1.iconfinder.com/data/icons/100-basic-for-user-interface/32/68-qr_code-128.png" vertex="1" parent="i6SgQi6mgNQ5JLsOrWUU-324">
          <mxGeometry x="19" y="19" width="18" height="18" as="geometry" />
        </mxCell>
        <mxCell id="i6SgQi6mgNQ5JLsOrWUU-327" value="" style="pointerEvents=1;shadow=0;dashed=0;html=1;strokeColor=none;fillColor=#505050;labelPosition=center;verticalLabelPosition=bottom;verticalAlign=top;outlineConnect=0;align=center;shape=mxgraph.office.security.key_permissions;direction=south;flipV=0;flipH=1;" vertex="1" parent="i6SgQi6mgNQ5JLsOrWUU-323">
          <mxGeometry x="9" y="61" width="34" height="13" as="geometry" />
        </mxCell>
        <mxCell id="i6SgQi6mgNQ5JLsOrWUU-328" value="&lt;font style=&quot;font-size: 20px&quot;&gt;Bob&lt;/font&gt;" style="outlineConnect=0;fontColor=#232F3E;gradientColor=none;fillColor=#232F3E;strokeColor=none;dashed=0;verticalLabelPosition=bottom;verticalAlign=top;align=center;html=1;fontSize=12;fontStyle=0;aspect=fixed;pointerEvents=1;shape=mxgraph.aws4.user;" vertex="1" parent="i6SgQi6mgNQ5JLsOrWUU-322">
          <mxGeometry x="-10" width="78" height="78" as="geometry" />
        </mxCell>
        <mxCell id="i6SgQi6mgNQ5JLsOrWUU-329" value="" style="shape=image;html=1;verticalAlign=top;verticalLabelPosition=bottom;labelBackgroundColor=#ffffff;imageAspect=0;aspect=fixed;image=https://cdn2.iconfinder.com/data/icons/ios-7-icons/50/money-128.png" vertex="1" parent="i6SgQi6mgNQ5JLsOrWUU-322">
          <mxGeometry x="110" y="60" width="30" height="30" as="geometry" />
        </mxCell>
        <mxCell id="i6SgQi6mgNQ5JLsOrWUU-330" value="" style="group" vertex="1" connectable="0" parent="1">
          <mxGeometry x="2158.8900000000003" y="56.540000000000006" width="138.5" height="108" as="geometry" />
        </mxCell>
        <mxCell id="i6SgQi6mgNQ5JLsOrWUU-331" value="&lt;font style=&quot;font-size: 20px&quot;&gt;Alice&lt;/font&gt;" style="outlineConnect=0;fontColor=#232F3E;gradientColor=none;fillColor=#232F3E;strokeColor=none;dashed=0;verticalLabelPosition=bottom;verticalAlign=top;align=center;html=1;fontSize=12;fontStyle=0;aspect=fixed;pointerEvents=1;shape=mxgraph.aws4.user;" vertex="1" parent="i6SgQi6mgNQ5JLsOrWUU-330">
          <mxGeometry x="60.5" width="78" height="78" as="geometry" />
        </mxCell>
        <mxCell id="i6SgQi6mgNQ5JLsOrWUU-332" value="" style="group" vertex="1" connectable="0" parent="i6SgQi6mgNQ5JLsOrWUU-330">
          <mxGeometry x="18.5" y="34" width="56" height="74" as="geometry" />
        </mxCell>
        <mxCell id="i6SgQi6mgNQ5JLsOrWUU-333" value="" style="group" vertex="1" connectable="0" parent="i6SgQi6mgNQ5JLsOrWUU-332">
          <mxGeometry width="56" height="56" as="geometry" />
        </mxCell>
        <mxCell id="i6SgQi6mgNQ5JLsOrWUU-334" value="" style="shape=image;html=1;verticalAlign=top;verticalLabelPosition=bottom;labelBackgroundColor=#ffffff;imageAspect=0;aspect=fixed;image=https://cdn4.iconfinder.com/data/icons/essential-app-1/16/mobile-phone-smart-screen-128.png" vertex="1" parent="i6SgQi6mgNQ5JLsOrWUU-333">
          <mxGeometry width="56" height="56" as="geometry" />
        </mxCell>
        <mxCell id="i6SgQi6mgNQ5JLsOrWUU-335" value="" style="shape=image;html=1;verticalAlign=top;verticalLabelPosition=bottom;labelBackgroundColor=#ffffff;imageAspect=0;aspect=fixed;image=https://cdn1.iconfinder.com/data/icons/100-basic-for-user-interface/32/68-qr_code-128.png" vertex="1" parent="i6SgQi6mgNQ5JLsOrWUU-333">
          <mxGeometry x="19" y="19" width="18" height="18" as="geometry" />
        </mxCell>
        <mxCell id="i6SgQi6mgNQ5JLsOrWUU-336" value="" style="pointerEvents=1;shadow=0;dashed=0;html=1;strokeColor=none;fillColor=#505050;labelPosition=center;verticalLabelPosition=bottom;verticalAlign=top;outlineConnect=0;align=center;shape=mxgraph.office.security.key_permissions;direction=south;flipV=0;flipH=1;" vertex="1" parent="i6SgQi6mgNQ5JLsOrWUU-332">
          <mxGeometry x="9" y="61" width="34" height="13" as="geometry" />
        </mxCell>
        <mxCell id="i6SgQi6mgNQ5JLsOrWUU-337" value="" style="shape=image;html=1;verticalAlign=top;verticalLabelPosition=bottom;labelBackgroundColor=#ffffff;imageAspect=0;aspect=fixed;image=https://cdn2.iconfinder.com/data/icons/ios-7-icons/50/money-128.png" vertex="1" parent="i6SgQi6mgNQ5JLsOrWUU-330">
          <mxGeometry y="60" width="30" height="30" as="geometry" />
        </mxCell>
        <mxCell id="i6SgQi6mgNQ5JLsOrWUU-338" value="" style="endArrow=classic;html=1;" edge="1" parent="1">
          <mxGeometry width="50" height="50" relative="1" as="geometry">
            <mxPoint x="1957.5" y="136.54" as="sourcePoint" />
            <mxPoint x="2151" y="136.54" as="targetPoint" />
          </mxGeometry>
        </mxCell>
        <mxCell id="i6SgQi6mgNQ5JLsOrWUU-339" value="" style="shape=image;html=1;verticalAlign=top;verticalLabelPosition=bottom;labelBackgroundColor=#ffffff;imageAspect=0;aspect=fixed;image=https://cdn3.iconfinder.com/data/icons/popular-cryptocurrencies-vol-2019-1/80/eos-cryptocurrency-token-coin-128.png" vertex="1" parent="1">
          <mxGeometry x="2034" y="95.54" width="30" height="30" as="geometry" />
        </mxCell>
        <mxCell id="i6SgQi6mgNQ5JLsOrWUU-340" value="" style="line;strokeWidth=2;html=1;labelBackgroundColor=none;fontColor=none;" vertex="1" parent="1">
          <mxGeometry x="1781" y="168.54" width="960" height="10" as="geometry" />
        </mxCell>
        <mxCell id="i6SgQi6mgNQ5JLsOrWUU-341" value="Chains Before&amp;nbsp;Transaction" style="text;html=1;strokeColor=none;fillColor=none;align=center;verticalAlign=middle;whiteSpace=wrap;rounded=0;labelBackgroundColor=none;fontColor=none;fontSize=20;" vertex="1" parent="1">
          <mxGeometry x="2076" y="186.54" width="329" height="20" as="geometry" />
        </mxCell>
        <mxCell id="i6SgQi6mgNQ5JLsOrWUU-342" value="&lt;font style=&quot;font-size: 20px&quot;&gt;Bob&#39;s Validator&lt;/font&gt;" style="outlineConnect=0;fontColor=#232F3E;gradientColor=none;fillColor=#232F3E;strokeColor=none;dashed=0;verticalLabelPosition=bottom;verticalAlign=top;align=center;html=1;fontSize=12;fontStyle=0;aspect=fixed;pointerEvents=1;shape=mxgraph.aws4.traditional_server;labelBackgroundColor=none;" vertex="1" parent="1">
          <mxGeometry x="2578.5" y="50" width="45" height="78" as="geometry" />
        </mxCell>
        <mxCell id="i6SgQi6mgNQ5JLsOrWUU-343" value="" style="line;strokeWidth=2;html=1;labelBackgroundColor=none;fontColor=none;" vertex="1" parent="1">
          <mxGeometry x="1781" y="218.54" width="960" height="10" as="geometry" />
        </mxCell>
        <mxCell id="i6SgQi6mgNQ5JLsOrWUU-344" value="&lt;span style=&quot;font-size: 18px&quot;&gt;Validators knowledge of Bob&#39;s chain&lt;/span&gt;" style="text;html=1;align=center;verticalAlign=middle;resizable=0;points=[];autosize=1;strokeColor=none;" vertex="1" parent="1">
          <mxGeometry x="2451" y="427.39" width="300" height="20" as="geometry" />
        </mxCell>
        <mxCell id="i6SgQi6mgNQ5JLsOrWUU-345" value="" style="line;strokeWidth=2;html=1;labelBackgroundColor=none;fontColor=none;" vertex="1" parent="1">
          <mxGeometry x="1781" y="491.67999999999995" width="960" height="10" as="geometry" />
        </mxCell>
        <mxCell id="i6SgQi6mgNQ5JLsOrWUU-361" value="" style="edgeStyle=orthogonalEdgeStyle;rounded=0;orthogonalLoop=1;jettySize=auto;html=1;entryX=0.5;entryY=0;entryDx=0;entryDy=0;" edge="1" parent="1" source="i6SgQi6mgNQ5JLsOrWUU-349" target="i6SgQi6mgNQ5JLsOrWUU-352">
          <mxGeometry relative="1" as="geometry" />
        </mxCell>
        <mxCell id="i6SgQi6mgNQ5JLsOrWUU-349" value="Bob:n+3&lt;br&gt;To: Alice&lt;br&gt;5 ET" style="rounded=0;whiteSpace=wrap;html=1;fillColor=#0050ef;strokeColor=#001DBC;fontColor=#ffffff;" vertex="1" parent="1">
          <mxGeometry x="2121" y="584.09" width="80.91" height="50" as="geometry" />
        </mxCell>
        <mxCell id="i6SgQi6mgNQ5JLsOrWUU-368" value="" style="edgeStyle=orthogonalEdgeStyle;rounded=0;orthogonalLoop=1;jettySize=auto;html=1;" edge="1" parent="1" source="i6SgQi6mgNQ5JLsOrWUU-352" target="i6SgQi6mgNQ5JLsOrWUU-353">
          <mxGeometry relative="1" as="geometry" />
        </mxCell>
        <mxCell id="i6SgQi6mgNQ5JLsOrWUU-352" value="Bob:n+2&lt;br&gt;To: Peer 2&lt;br&gt;5 ET" style="rounded=0;whiteSpace=wrap;html=1;fillColor=#dae8fc;strokeColor=#6c8ebf;" vertex="1" parent="1">
          <mxGeometry x="2121" y="657.23" width="80.91" height="50" as="geometry" />
        </mxCell>
        <mxCell id="i6SgQi6mgNQ5JLsOrWUU-353" value="Bob:n+1&lt;br&gt;Checkpoint&lt;br&gt;20 ET" style="rounded=0;whiteSpace=wrap;html=1;fillColor=#dae8fc;strokeColor=#6c8ebf;" vertex="1" parent="1">
          <mxGeometry x="2121" y="724.8100000000002" width="80.91" height="50" as="geometry" />
        </mxCell>
        <mxCell id="i6SgQi6mgNQ5JLsOrWUU-362" value="" style="edgeStyle=orthogonalEdgeStyle;rounded=0;orthogonalLoop=1;jettySize=auto;html=1;" edge="1" parent="1" source="i6SgQi6mgNQ5JLsOrWUU-354" target="i6SgQi6mgNQ5JLsOrWUU-352">
          <mxGeometry relative="1" as="geometry" />
        </mxCell>
        <mxCell id="i6SgQi6mgNQ5JLsOrWUU-354" value="Peer 2:x&lt;br&gt;Accept" style="rounded=0;whiteSpace=wrap;html=1;" vertex="1" parent="1">
          <mxGeometry x="2021" y="657.23" width="80" height="50" as="geometry" />
        </mxCell>
        <mxCell id="i6SgQi6mgNQ5JLsOrWUU-363" value="" style="edgeStyle=orthogonalEdgeStyle;rounded=0;orthogonalLoop=1;jettySize=auto;html=1;" edge="1" parent="1" source="i6SgQi6mgNQ5JLsOrWUU-355" target="i6SgQi6mgNQ5JLsOrWUU-353">
          <mxGeometry relative="1" as="geometry" />
        </mxCell>
        <mxCell id="i6SgQi6mgNQ5JLsOrWUU-355" value="Gateway:y&lt;br&gt;Accept" style="rounded=0;whiteSpace=wrap;html=1;fillColor=#d5e8d4;strokeColor=#82b366;" vertex="1" parent="1">
          <mxGeometry x="2021" y="724.8100000000002" width="80" height="50" as="geometry" />
        </mxCell>
        <mxCell id="i6SgQi6mgNQ5JLsOrWUU-367" value="1.2. Transfer history to Alice" style="endArrow=classic;html=1;fontSize=18;labelPosition=center;verticalLabelPosition=bottom;align=center;verticalAlign=top;" edge="1" parent="1">
          <mxGeometry width="50" height="50" relative="1" as="geometry">
            <mxPoint x="1811" y="797.7099999999999" as="sourcePoint" />
            <mxPoint x="1981" y="797.7099999999999" as="targetPoint" />
          </mxGeometry>
        </mxCell>
        <mxCell id="i6SgQi6mgNQ5JLsOrWUU-369" value="&lt;span style=&quot;font-size: 18px&quot;&gt;1.1. Create new transaction&lt;/span&gt;" style="text;html=1;align=center;verticalAlign=middle;resizable=0;points=[];autosize=1;strokeColor=none;" vertex="1" parent="1">
          <mxGeometry x="1760" y="560.5400000000001" width="240" height="20" as="geometry" />
        </mxCell>
        <mxCell id="i6SgQi6mgNQ5JLsOrWUU-370" value="" style="line;strokeWidth=2;html=1;labelBackgroundColor=none;fontColor=none;" vertex="1" parent="1">
          <mxGeometry x="1781" y="541.1800000000001" width="960" height="10" as="geometry" />
        </mxCell>
        <mxCell id="i6SgQi6mgNQ5JLsOrWUU-371" value="Off-line Transfer" style="text;html=1;strokeColor=none;fillColor=none;align=center;verticalAlign=middle;whiteSpace=wrap;rounded=0;labelBackgroundColor=none;fontColor=none;fontSize=25;" vertex="1" parent="1">
          <mxGeometry x="2076" y="509" width="329" height="20" as="geometry" />
        </mxCell>
        <mxCell id="i6SgQi6mgNQ5JLsOrWUU-380" value="" style="edgeStyle=orthogonalEdgeStyle;rounded=0;orthogonalLoop=1;jettySize=auto;html=1;" edge="1" parent="1" source="i6SgQi6mgNQ5JLsOrWUU-373">
          <mxGeometry relative="1" as="geometry">
            <mxPoint x="2270" y="727" as="targetPoint" />
          </mxGeometry>
        </mxCell>
        <mxCell id="i6SgQi6mgNQ5JLsOrWUU-373" value="Alice:m+2&lt;br&gt;To: Peer 4&lt;br&gt;5 ET" style="rounded=0;whiteSpace=wrap;html=1;fillColor=#f8cecc;strokeColor=#b85450;" vertex="1" parent="1">
          <mxGeometry x="2230" y="657.2300000000001" width="80.91" height="50" as="geometry" />
        </mxCell>
        <mxCell id="i6SgQi6mgNQ5JLsOrWUU-374" value="" style="edgeStyle=orthogonalEdgeStyle;rounded=0;orthogonalLoop=1;jettySize=auto;html=1;" edge="1" parent="1" source="i6SgQi6mgNQ5JLsOrWUU-375" target="i6SgQi6mgNQ5JLsOrWUU-373">
          <mxGeometry relative="1" as="geometry" />
        </mxCell>
        <mxCell id="i6SgQi6mgNQ5JLsOrWUU-375" value="Peer 4:a&lt;br&gt;Accept" style="rounded=0;whiteSpace=wrap;html=1;" vertex="1" parent="1">
          <mxGeometry x="2348.89" y="657.2300000000001" width="80" height="50" as="geometry" />
        </mxCell>
        <mxCell id="i6SgQi6mgNQ5JLsOrWUU-376" value="" style="group" vertex="1" connectable="0" parent="1">
          <mxGeometry x="2240.999999999999" y="720.2700000000002" width="60.00000000000023" height="40" as="geometry" />
        </mxCell>
        <mxCell id="i6SgQi6mgNQ5JLsOrWUU-377" value="" style="shape=waypoint;size=6;pointerEvents=1;points=[];fillColor=#ffffff;resizable=0;rotatable=0;perimeter=centerPerimeter;snapToPoint=1;rounded=0;" vertex="1" parent="i6SgQi6mgNQ5JLsOrWUU-376">
          <mxGeometry x="10.000000000000227" width="40" height="40" as="geometry" />
        </mxCell>
        <mxCell id="i6SgQi6mgNQ5JLsOrWUU-378" value="" style="shape=waypoint;size=6;pointerEvents=1;points=[];fillColor=#ffffff;resizable=0;rotatable=0;perimeter=centerPerimeter;snapToPoint=1;rounded=0;" vertex="1" parent="i6SgQi6mgNQ5JLsOrWUU-376">
          <mxGeometry x="20.000000000000227" width="40" height="40" as="geometry" />
        </mxCell>
        <mxCell id="i6SgQi6mgNQ5JLsOrWUU-379" value="" style="shape=waypoint;size=6;pointerEvents=1;points=[];fillColor=#ffffff;resizable=0;rotatable=0;perimeter=centerPerimeter;snapToPoint=1;rounded=0;" vertex="1" parent="i6SgQi6mgNQ5JLsOrWUU-376">
          <mxGeometry width="40" height="40" as="geometry" />
        </mxCell>
        <mxCell id="i6SgQi6mgNQ5JLsOrWUU-382" style="edgeStyle=orthogonalEdgeStyle;rounded=0;orthogonalLoop=1;jettySize=auto;html=1;" edge="1" parent="1" source="i6SgQi6mgNQ5JLsOrWUU-381" target="i6SgQi6mgNQ5JLsOrWUU-349">
          <mxGeometry relative="1" as="geometry" />
        </mxCell>
        <mxCell id="i6SgQi6mgNQ5JLsOrWUU-383" style="edgeStyle=orthogonalEdgeStyle;rounded=0;orthogonalLoop=1;jettySize=auto;html=1;" edge="1" parent="1" source="i6SgQi6mgNQ5JLsOrWUU-381" target="i6SgQi6mgNQ5JLsOrWUU-373">
          <mxGeometry relative="1" as="geometry" />
        </mxCell>
        <mxCell id="i6SgQi6mgNQ5JLsOrWUU-381" value="Alice:m+2&lt;br&gt;Accept" style="rounded=0;whiteSpace=wrap;html=1;fillColor=#a20025;strokeColor=#6F0000;fontColor=#ffffff;" vertex="1" parent="1">
          <mxGeometry x="2230" y="584.09" width="80.91" height="50" as="geometry" />
        </mxCell>
        <mxCell id="i6SgQi6mgNQ5JLsOrWUU-384" value="Alice:m+2&lt;br&gt;Accept" style="rounded=0;whiteSpace=wrap;html=1;fillColor=#a20025;strokeColor=#6F0000;fontColor=#ffffff;" vertex="1" parent="1">
          <mxGeometry x="2065.54" y="834.8399999999999" width="80.91" height="50" as="geometry" />
        </mxCell>
        <mxCell id="i6SgQi6mgNQ5JLsOrWUU-385" value="&lt;span style=&quot;font-size: 18px&quot;&gt;1.3. Alice validates and accepts&lt;/span&gt;" style="text;html=1;align=center;verticalAlign=middle;resizable=0;points=[];autosize=1;strokeColor=none;" vertex="1" parent="1">
          <mxGeometry x="2167.99" y="788" width="270" height="20" as="geometry" />
        </mxCell>
        <mxCell id="i6SgQi6mgNQ5JLsOrWUU-386" value="&lt;font style=&quot;font-size: 18px&quot;&gt;1.4 Return acceptance&lt;/font&gt;" style="endArrow=classic;html=1;fontSize=18;labelPosition=center;verticalLabelPosition=bottom;align=center;verticalAlign=top;" edge="1" parent="1">
          <mxGeometry width="50" height="50" relative="1" as="geometry">
            <mxPoint x="2191" y="901.3000000000001" as="sourcePoint" />
            <mxPoint x="2021" y="901.3000000000001" as="targetPoint" />
          </mxGeometry>
        </mxCell>
        <mxCell id="i6SgQi6mgNQ5JLsOrWUU-392" value="" style="edgeStyle=orthogonalEdgeStyle;rounded=0;orthogonalLoop=1;jettySize=auto;html=1;entryX=0.5;entryY=0;entryDx=0;entryDy=0;" edge="1" parent="1" source="i6SgQi6mgNQ5JLsOrWUU-393">
          <mxGeometry relative="1" as="geometry">
            <mxPoint x="1945.995" y="926.4500000000002" as="targetPoint" />
          </mxGeometry>
        </mxCell>
        <mxCell id="i6SgQi6mgNQ5JLsOrWUU-393" value="Bob:n+3&lt;br&gt;To: Alice&lt;br&gt;5 ET" style="rounded=0;whiteSpace=wrap;html=1;fillColor=#0050ef;strokeColor=#001DBC;fontColor=#ffffff;" vertex="1" parent="1">
          <mxGeometry x="1905.54" y="853.3100000000001" width="80.91" height="50" as="geometry" />
        </mxCell>
        <mxCell id="i6SgQi6mgNQ5JLsOrWUU-402" value="" style="edgeStyle=orthogonalEdgeStyle;rounded=0;orthogonalLoop=1;jettySize=auto;html=1;" edge="1" parent="1" source="i6SgQi6mgNQ5JLsOrWUU-401" target="i6SgQi6mgNQ5JLsOrWUU-393">
          <mxGeometry relative="1" as="geometry" />
        </mxCell>
        <mxCell id="i6SgQi6mgNQ5JLsOrWUU-401" value="Alice:m+2&lt;br&gt;Accept" style="rounded=0;whiteSpace=wrap;html=1;fillColor=#a20025;strokeColor=#6F0000;fontColor=#ffffff;" vertex="1" parent="1">
          <mxGeometry x="1796.4500000000003" y="853.3100000000001" width="80.91" height="50" as="geometry" />
        </mxCell>
        <mxCell id="i6SgQi6mgNQ5JLsOrWUU-403" value="&lt;span style=&quot;font-size: 18px&quot;&gt;1.5. Bob adds block to his chain&lt;/span&gt;" style="text;html=1;align=center;verticalAlign=middle;resizable=0;points=[];autosize=1;strokeColor=none;" vertex="1" parent="1">
          <mxGeometry x="1771" y="961.35" width="270" height="20" as="geometry" />
        </mxCell>
        <mxCell id="i6SgQi6mgNQ5JLsOrWUU-404" value="" style="line;strokeWidth=2;html=1;labelBackgroundColor=none;fontColor=none;" vertex="1" parent="1">
          <mxGeometry x="1774" y="1038.5099999999998" width="967" height="10" as="geometry" />
        </mxCell>
        <mxCell id="i6SgQi6mgNQ5JLsOrWUU-405" value="" style="line;strokeWidth=2;html=1;labelBackgroundColor=none;fontColor=none;" vertex="1" parent="1">
          <mxGeometry x="1773.63" y="992.8899999999999" width="967" height="10" as="geometry" />
        </mxCell>
        <mxCell id="i6SgQi6mgNQ5JLsOrWUU-406" value="Online Finalisation" style="text;html=1;strokeColor=none;fillColor=none;align=center;verticalAlign=middle;whiteSpace=wrap;rounded=0;labelBackgroundColor=none;fontColor=none;fontSize=24;" vertex="1" parent="1">
          <mxGeometry x="2078.88" y="1012.8899999999999" width="329" height="20" as="geometry" />
        </mxCell>
        <mxCell id="i6SgQi6mgNQ5JLsOrWUU-407" value="" style="edgeStyle=orthogonalEdgeStyle;rounded=0;orthogonalLoop=1;jettySize=auto;html=1;entryX=0.5;entryY=0;entryDx=0;entryDy=0;" edge="1" parent="1" source="i6SgQi6mgNQ5JLsOrWUU-408" target="i6SgQi6mgNQ5JLsOrWUU-410">
          <mxGeometry relative="1" as="geometry" />
        </mxCell>
        <mxCell id="i6SgQi6mgNQ5JLsOrWUU-408" value="Bob:n+3&lt;br&gt;To: Alice&lt;br&gt;5 ET" style="rounded=0;whiteSpace=wrap;html=1;fillColor=#0050ef;strokeColor=#001DBC;fontColor=#ffffff;" vertex="1" parent="1">
          <mxGeometry x="2277.08" y="1192.28" width="80.91" height="50" as="geometry" />
        </mxCell>
        <mxCell id="i6SgQi6mgNQ5JLsOrWUU-409" value="" style="edgeStyle=orthogonalEdgeStyle;rounded=0;orthogonalLoop=1;jettySize=auto;html=1;" edge="1" parent="1" source="i6SgQi6mgNQ5JLsOrWUU-410" target="i6SgQi6mgNQ5JLsOrWUU-411">
          <mxGeometry relative="1" as="geometry" />
        </mxCell>
        <mxCell id="i6SgQi6mgNQ5JLsOrWUU-410" value="Bob:n+2&lt;br&gt;To: Peer 2&lt;br&gt;5 ET" style="rounded=0;whiteSpace=wrap;html=1;fillColor=#dae8fc;strokeColor=#6c8ebf;" vertex="1" parent="1">
          <mxGeometry x="2277.08" y="1265.4199999999998" width="80.91" height="50" as="geometry" />
        </mxCell>
        <mxCell id="i6SgQi6mgNQ5JLsOrWUU-411" value="Bob:n+1&lt;br&gt;Checkpoint&lt;br&gt;20 ET" style="rounded=0;whiteSpace=wrap;html=1;fillColor=#dae8fc;strokeColor=#6c8ebf;" vertex="1" parent="1">
          <mxGeometry x="2277.08" y="1333.0000000000002" width="80.91" height="50" as="geometry" />
        </mxCell>
        <mxCell id="i6SgQi6mgNQ5JLsOrWUU-412" value="" style="edgeStyle=orthogonalEdgeStyle;rounded=0;orthogonalLoop=1;jettySize=auto;html=1;" edge="1" parent="1" source="i6SgQi6mgNQ5JLsOrWUU-413" target="i6SgQi6mgNQ5JLsOrWUU-410">
          <mxGeometry relative="1" as="geometry" />
        </mxCell>
        <mxCell id="i6SgQi6mgNQ5JLsOrWUU-413" value="Peer 2:x&lt;br&gt;Accept" style="rounded=0;whiteSpace=wrap;html=1;" vertex="1" parent="1">
          <mxGeometry x="2167.99" y="1265.4199999999998" width="80" height="50" as="geometry" />
        </mxCell>
        <mxCell id="i6SgQi6mgNQ5JLsOrWUU-414" value="" style="edgeStyle=orthogonalEdgeStyle;rounded=0;orthogonalLoop=1;jettySize=auto;html=1;" edge="1" parent="1" source="i6SgQi6mgNQ5JLsOrWUU-415" target="i6SgQi6mgNQ5JLsOrWUU-411">
          <mxGeometry relative="1" as="geometry" />
        </mxCell>
        <mxCell id="i6SgQi6mgNQ5JLsOrWUU-415" value="Gateway:y&lt;br&gt;Accept" style="rounded=0;whiteSpace=wrap;html=1;fillColor=#d5e8d4;strokeColor=#82b366;" vertex="1" parent="1">
          <mxGeometry x="2167.99" y="1333.0000000000002" width="80" height="50" as="geometry" />
        </mxCell>
        <mxCell id="i6SgQi6mgNQ5JLsOrWUU-416" value="2.2. Transfer Bobs known history to validator" style="endArrow=classic;html=1;fontSize=18;labelPosition=center;verticalLabelPosition=bottom;align=center;verticalAlign=top;" edge="1" parent="1">
          <mxGeometry width="50" height="50" relative="1" as="geometry">
            <mxPoint x="2113.86" y="1398.8200000000002" as="sourcePoint" />
            <mxPoint x="2400.41" y="1399" as="targetPoint" />
          </mxGeometry>
        </mxCell>
        <mxCell id="i6SgQi6mgNQ5JLsOrWUU-425" style="edgeStyle=orthogonalEdgeStyle;rounded=0;orthogonalLoop=1;jettySize=auto;html=1;" edge="1" parent="1" source="i6SgQi6mgNQ5JLsOrWUU-427" target="i6SgQi6mgNQ5JLsOrWUU-408">
          <mxGeometry relative="1" as="geometry" />
        </mxCell>
        <mxCell id="i6SgQi6mgNQ5JLsOrWUU-427" value="Alice:m+2&lt;br&gt;Accept" style="rounded=0;whiteSpace=wrap;html=1;fillColor=#a20025;strokeColor=#6F0000;fontColor=#ffffff;" vertex="1" parent="1">
          <mxGeometry x="2167.99" y="1192.28" width="80.91" height="50" as="geometry" />
        </mxCell>
        <mxCell id="i6SgQi6mgNQ5JLsOrWUU-428" value="" style="group" vertex="1" connectable="0" parent="1">
          <mxGeometry x="1917.3599999999988" y="918.82" width="60.00000000000023" height="40" as="geometry" />
        </mxCell>
        <mxCell id="i6SgQi6mgNQ5JLsOrWUU-429" value="" style="shape=waypoint;size=6;pointerEvents=1;points=[];fillColor=#ffffff;resizable=0;rotatable=0;perimeter=centerPerimeter;snapToPoint=1;rounded=0;" vertex="1" parent="i6SgQi6mgNQ5JLsOrWUU-428">
          <mxGeometry x="10.000000000000227" width="40" height="40" as="geometry" />
        </mxCell>
        <mxCell id="i6SgQi6mgNQ5JLsOrWUU-430" value="" style="shape=waypoint;size=6;pointerEvents=1;points=[];fillColor=#ffffff;resizable=0;rotatable=0;perimeter=centerPerimeter;snapToPoint=1;rounded=0;" vertex="1" parent="i6SgQi6mgNQ5JLsOrWUU-428">
          <mxGeometry x="20.000000000000227" width="40" height="40" as="geometry" />
        </mxCell>
        <mxCell id="i6SgQi6mgNQ5JLsOrWUU-431" value="" style="shape=waypoint;size=6;pointerEvents=1;points=[];fillColor=#ffffff;resizable=0;rotatable=0;perimeter=centerPerimeter;snapToPoint=1;rounded=0;" vertex="1" parent="i6SgQi6mgNQ5JLsOrWUU-428">
          <mxGeometry width="40" height="40" as="geometry" />
        </mxCell>
        <mxCell id="i6SgQi6mgNQ5JLsOrWUU-432" value="" style="endArrow=none;dashed=1;html=1;dashPattern=1 3;strokeWidth=2;" edge="1" parent="1">
          <mxGeometry width="50" height="50" relative="1" as="geometry">
            <mxPoint x="2011" y="1480" as="sourcePoint" />
            <mxPoint x="2011" y="49.999999999999986" as="targetPoint" />
          </mxGeometry>
        </mxCell>
        <mxCell id="i6SgQi6mgNQ5JLsOrWUU-435" value="" style="endArrow=none;dashed=1;html=1;dashPattern=1 3;strokeWidth=2;" edge="1" parent="1">
          <mxGeometry width="50" height="50" relative="1" as="geometry">
            <mxPoint x="2441" y="1560" as="sourcePoint" />
            <mxPoint x="2441" y="56.539999999999964" as="targetPoint" />
          </mxGeometry>
        </mxCell>
        <mxCell id="i6SgQi6mgNQ5JLsOrWUU-438" value="" style="edgeStyle=orthogonalEdgeStyle;rounded=0;orthogonalLoop=1;jettySize=auto;html=1;" edge="1" parent="1" source="i6SgQi6mgNQ5JLsOrWUU-437" target="i6SgQi6mgNQ5JLsOrWUU-427">
          <mxGeometry relative="1" as="geometry" />
        </mxCell>
        <mxCell id="i6SgQi6mgNQ5JLsOrWUU-437" value="Alice:m+3&lt;br&gt;Finalise" style="rounded=0;whiteSpace=wrap;html=1;fillColor=#f8cecc;strokeColor=#b85450;" vertex="1" parent="1">
          <mxGeometry x="2167.99" y="1114.09" width="80.91" height="50" as="geometry" />
        </mxCell>
        <mxCell id="i6SgQi6mgNQ5JLsOrWUU-439" value="&lt;meta charset=&quot;utf-8&quot;&gt;&lt;span style=&quot;color: rgb(0, 0, 0); font-family: helvetica; font-size: 18px; font-style: normal; font-weight: 400; letter-spacing: normal; text-align: center; text-indent: 0px; text-transform: none; word-spacing: 0px; background-color: rgb(248, 249, 250); display: inline; float: none;&quot;&gt;2.3 Validate and accept&lt;/span&gt;" style="text;whiteSpace=wrap;html=1;" vertex="1" parent="1">
          <mxGeometry x="2463.4399999999996" y="1072.09" width="210" height="30" as="geometry" />
        </mxCell>
        <mxCell id="i6SgQi6mgNQ5JLsOrWUU-440" value="" style="edgeStyle=orthogonalEdgeStyle;rounded=0;orthogonalLoop=1;jettySize=auto;html=1;entryX=0.5;entryY=0;entryDx=0;entryDy=0;" edge="1" parent="1" source="i6SgQi6mgNQ5JLsOrWUU-441" target="i6SgQi6mgNQ5JLsOrWUU-443">
          <mxGeometry relative="1" as="geometry" />
        </mxCell>
        <mxCell id="i6SgQi6mgNQ5JLsOrWUU-441" value="Bob:n+3&lt;br&gt;To: Alice&lt;br&gt;5 ET" style="rounded=0;whiteSpace=wrap;html=1;fillColor=#0050ef;strokeColor=#001DBC;fontColor=#ffffff;" vertex="1" parent="1">
          <mxGeometry x="2693.72" y="1188.09" width="80.91" height="50" as="geometry" />
        </mxCell>
        <mxCell id="i6SgQi6mgNQ5JLsOrWUU-442" value="" style="edgeStyle=orthogonalEdgeStyle;rounded=0;orthogonalLoop=1;jettySize=auto;html=1;" edge="1" parent="1" source="i6SgQi6mgNQ5JLsOrWUU-443" target="i6SgQi6mgNQ5JLsOrWUU-444">
          <mxGeometry relative="1" as="geometry" />
        </mxCell>
        <mxCell id="i6SgQi6mgNQ5JLsOrWUU-443" value="Bob:n+2&lt;br&gt;To: Peer 2&lt;br&gt;5 ET" style="rounded=0;whiteSpace=wrap;html=1;fillColor=#dae8fc;strokeColor=#6c8ebf;" vertex="1" parent="1">
          <mxGeometry x="2693.72" y="1261.2299999999998" width="80.91" height="50" as="geometry" />
        </mxCell>
        <mxCell id="i6SgQi6mgNQ5JLsOrWUU-444" value="Bob:n+1&lt;br&gt;Checkpoint&lt;br&gt;20 ET" style="rounded=0;whiteSpace=wrap;html=1;fillColor=#dae8fc;strokeColor=#6c8ebf;" vertex="1" parent="1">
          <mxGeometry x="2693.72" y="1328.8100000000002" width="80.91" height="50" as="geometry" />
        </mxCell>
        <mxCell id="i6SgQi6mgNQ5JLsOrWUU-445" value="" style="edgeStyle=orthogonalEdgeStyle;rounded=0;orthogonalLoop=1;jettySize=auto;html=1;" edge="1" parent="1" source="i6SgQi6mgNQ5JLsOrWUU-446" target="i6SgQi6mgNQ5JLsOrWUU-443">
          <mxGeometry relative="1" as="geometry" />
        </mxCell>
        <mxCell id="i6SgQi6mgNQ5JLsOrWUU-446" value="Peer 2:x&lt;br&gt;Accept" style="rounded=0;whiteSpace=wrap;html=1;" vertex="1" parent="1">
          <mxGeometry x="2584.6299999999997" y="1261.2299999999998" width="80" height="50" as="geometry" />
        </mxCell>
        <mxCell id="i6SgQi6mgNQ5JLsOrWUU-447" value="" style="edgeStyle=orthogonalEdgeStyle;rounded=0;orthogonalLoop=1;jettySize=auto;html=1;" edge="1" parent="1" source="i6SgQi6mgNQ5JLsOrWUU-448" target="i6SgQi6mgNQ5JLsOrWUU-444">
          <mxGeometry relative="1" as="geometry" />
        </mxCell>
        <mxCell id="i6SgQi6mgNQ5JLsOrWUU-448" value="Gateway:y&lt;br&gt;Accept" style="rounded=0;whiteSpace=wrap;html=1;fillColor=#d5e8d4;strokeColor=#82b366;" vertex="1" parent="1">
          <mxGeometry x="2462.99" y="1328.8100000000002" width="80" height="50" as="geometry" />
        </mxCell>
        <mxCell id="i6SgQi6mgNQ5JLsOrWUU-450" value="" style="edgeStyle=orthogonalEdgeStyle;rounded=0;orthogonalLoop=1;jettySize=auto;html=1;" edge="1" parent="1" source="i6SgQi6mgNQ5JLsOrWUU-449" target="i6SgQi6mgNQ5JLsOrWUU-441">
          <mxGeometry relative="1" as="geometry" />
        </mxCell>
        <mxCell id="i6SgQi6mgNQ5JLsOrWUU-449" value="Alice:m+2&lt;br&gt;Accept" style="rounded=0;whiteSpace=wrap;html=1;fillColor=#a20025;strokeColor=#6F0000;fontColor=#ffffff;" vertex="1" parent="1">
          <mxGeometry x="2584.6299999999997" y="1188.09" width="80.91" height="50" as="geometry" />
        </mxCell>
        <mxCell id="i6SgQi6mgNQ5JLsOrWUU-452" value="" style="edgeStyle=orthogonalEdgeStyle;rounded=0;orthogonalLoop=1;jettySize=auto;html=1;" edge="1" parent="1" source="i6SgQi6mgNQ5JLsOrWUU-451" target="i6SgQi6mgNQ5JLsOrWUU-449">
          <mxGeometry relative="1" as="geometry" />
        </mxCell>
        <mxCell id="i6SgQi6mgNQ5JLsOrWUU-451" value="Alice:m+3&lt;br&gt;Finalise" style="rounded=0;whiteSpace=wrap;html=1;fillColor=#f8cecc;strokeColor=#b85450;" vertex="1" parent="1">
          <mxGeometry x="2584.6299999999997" y="1118.09" width="80.91" height="50" as="geometry" />
        </mxCell>
        <mxCell id="i6SgQi6mgNQ5JLsOrWUU-454" value="" style="edgeStyle=orthogonalEdgeStyle;rounded=0;orthogonalLoop=1;jettySize=auto;html=1;" edge="1" parent="1" source="i6SgQi6mgNQ5JLsOrWUU-453" target="i6SgQi6mgNQ5JLsOrWUU-451">
          <mxGeometry relative="1" as="geometry" />
        </mxCell>
        <mxCell id="i6SgQi6mgNQ5JLsOrWUU-455" style="edgeStyle=orthogonalEdgeStyle;rounded=0;orthogonalLoop=1;jettySize=auto;html=1;" edge="1" parent="1" source="i6SgQi6mgNQ5JLsOrWUU-453">
          <mxGeometry relative="1" as="geometry">
            <mxPoint x="2503.4399999999996" y="1208.09" as="targetPoint" />
          </mxGeometry>
        </mxCell>
        <mxCell id="i6SgQi6mgNQ5JLsOrWUU-453" value="Gateway:y+q&lt;br&gt;Accept" style="rounded=0;whiteSpace=wrap;html=1;fillColor=#d5e8d4;strokeColor=#82b366;" vertex="1" parent="1">
          <mxGeometry x="2463.4399999999996" y="1118.0900000000001" width="80" height="50" as="geometry" />
        </mxCell>
        <mxCell id="i6SgQi6mgNQ5JLsOrWUU-456" value="" style="group" vertex="1" connectable="0" parent="1">
          <mxGeometry x="2472.989999999999" y="1225.4199999999998" width="60.00000000000023" height="40" as="geometry" />
        </mxCell>
        <mxCell id="i6SgQi6mgNQ5JLsOrWUU-457" value="" style="shape=waypoint;size=6;pointerEvents=1;points=[];fillColor=#ffffff;resizable=0;rotatable=0;perimeter=centerPerimeter;snapToPoint=1;rounded=0;" vertex="1" parent="i6SgQi6mgNQ5JLsOrWUU-456">
          <mxGeometry x="10.000000000000227" width="40" height="40" as="geometry" />
        </mxCell>
        <mxCell id="i6SgQi6mgNQ5JLsOrWUU-458" value="" style="shape=waypoint;size=6;pointerEvents=1;points=[];fillColor=#ffffff;resizable=0;rotatable=0;perimeter=centerPerimeter;snapToPoint=1;rounded=0;" vertex="1" parent="i6SgQi6mgNQ5JLsOrWUU-456">
          <mxGeometry x="20.000000000000227" width="40" height="40" as="geometry" />
        </mxCell>
        <mxCell id="i6SgQi6mgNQ5JLsOrWUU-459" value="" style="shape=waypoint;size=6;pointerEvents=1;points=[];fillColor=#ffffff;resizable=0;rotatable=0;perimeter=centerPerimeter;snapToPoint=1;rounded=0;" vertex="1" parent="i6SgQi6mgNQ5JLsOrWUU-456">
          <mxGeometry width="40" height="40" as="geometry" />
        </mxCell>
        <mxCell id="i6SgQi6mgNQ5JLsOrWUU-460" style="edgeStyle=orthogonalEdgeStyle;rounded=0;orthogonalLoop=1;jettySize=auto;html=1;" edge="1" parent="1">
          <mxGeometry relative="1" as="geometry">
            <mxPoint x="2502.6299999999997" y="1328.09" as="targetPoint" />
            <mxPoint x="2502.6299999999997" y="1288.09" as="sourcePoint" />
            <Array as="points">
              <mxPoint x="2503.31" y="1308.09" />
              <mxPoint x="2503.31" y="1308.09" />
            </Array>
          </mxGeometry>
        </mxCell>
        <mxCell id="i6SgQi6mgNQ5JLsOrWUU-461" value="Gateway:y+q&lt;br&gt;Accept" style="rounded=0;whiteSpace=wrap;html=1;fillColor=#d5e8d4;strokeColor=#82b366;" vertex="1" parent="1">
          <mxGeometry x="2500.36" y="1450.0000000000002" width="80" height="50" as="geometry" />
        </mxCell>
        <mxCell id="i6SgQi6mgNQ5JLsOrWUU-462" value="&lt;font style=&quot;font-size: 18px&quot;&gt;2.4 Return acceptance&lt;/font&gt;" style="endArrow=classic;html=1;fontSize=18;labelPosition=center;verticalLabelPosition=bottom;align=center;verticalAlign=top;" edge="1" parent="1">
          <mxGeometry width="50" height="50" relative="1" as="geometry">
            <mxPoint x="2623.4999999999995" y="1520.0000000000002" as="sourcePoint" />
            <mxPoint x="2453.4999999999995" y="1520.0000000000002" as="targetPoint" />
          </mxGeometry>
        </mxCell>
        <mxCell id="i6SgQi6mgNQ5JLsOrWUU-463" value="&lt;span style=&quot;font-size: 18px&quot;&gt;2.1 Create finalization proposal&lt;/span&gt;" style="text;html=1;align=center;verticalAlign=middle;resizable=0;points=[];autosize=1;strokeColor=none;" vertex="1" parent="1">
          <mxGeometry x="2098.14" y="1064.34" width="260" height="20" as="geometry" />
        </mxCell>
        <mxCell id="i6SgQi6mgNQ5JLsOrWUU-464" value="" style="edgeStyle=orthogonalEdgeStyle;rounded=0;orthogonalLoop=1;jettySize=auto;html=1;entryX=0.5;entryY=0;entryDx=0;entryDy=0;" edge="1" parent="1" source="i6SgQi6mgNQ5JLsOrWUU-465" target="i6SgQi6mgNQ5JLsOrWUU-467">
          <mxGeometry relative="1" as="geometry" />
        </mxCell>
        <mxCell id="i6SgQi6mgNQ5JLsOrWUU-465" value="Bob:n+3&lt;br&gt;To: Alice&lt;br&gt;5 ET" style="rounded=0;whiteSpace=wrap;html=1;fillColor=#0050ef;strokeColor=#001DBC;fontColor=#ffffff;" vertex="1" parent="1">
          <mxGeometry x="1896.4499999999998" y="584.09" width="80.91" height="50" as="geometry" />
        </mxCell>
        <mxCell id="i6SgQi6mgNQ5JLsOrWUU-466" value="" style="edgeStyle=orthogonalEdgeStyle;rounded=0;orthogonalLoop=1;jettySize=auto;html=1;" edge="1" parent="1" source="i6SgQi6mgNQ5JLsOrWUU-467" target="i6SgQi6mgNQ5JLsOrWUU-468">
          <mxGeometry relative="1" as="geometry" />
        </mxCell>
        <mxCell id="i6SgQi6mgNQ5JLsOrWUU-467" value="Bob:n+2&lt;br&gt;To: Peer 2&lt;br&gt;5 ET" style="rounded=0;whiteSpace=wrap;html=1;fillColor=#dae8fc;strokeColor=#6c8ebf;" vertex="1" parent="1">
          <mxGeometry x="1896.4499999999998" y="657.23" width="80.91" height="50" as="geometry" />
        </mxCell>
        <mxCell id="i6SgQi6mgNQ5JLsOrWUU-474" value="" style="edgeStyle=orthogonalEdgeStyle;rounded=0;orthogonalLoop=1;jettySize=auto;html=1;" edge="1" parent="1" source="i6SgQi6mgNQ5JLsOrWUU-468">
          <mxGeometry relative="1" as="geometry">
            <mxPoint x="1937" y="814" as="targetPoint" />
          </mxGeometry>
        </mxCell>
        <mxCell id="i6SgQi6mgNQ5JLsOrWUU-468" value="Bob:n+1&lt;br&gt;Checkpoint&lt;br&gt;20 ET" style="rounded=0;whiteSpace=wrap;html=1;fillColor=#dae8fc;strokeColor=#6c8ebf;" vertex="1" parent="1">
          <mxGeometry x="1896.4499999999998" y="724.8100000000002" width="80.91" height="50" as="geometry" />
        </mxCell>
        <mxCell id="i6SgQi6mgNQ5JLsOrWUU-469" value="" style="edgeStyle=orthogonalEdgeStyle;rounded=0;orthogonalLoop=1;jettySize=auto;html=1;" edge="1" parent="1" source="i6SgQi6mgNQ5JLsOrWUU-470" target="i6SgQi6mgNQ5JLsOrWUU-467">
          <mxGeometry relative="1" as="geometry" />
        </mxCell>
        <mxCell id="i6SgQi6mgNQ5JLsOrWUU-470" value="Peer 2:x&lt;br&gt;Accept" style="rounded=0;whiteSpace=wrap;html=1;" vertex="1" parent="1">
          <mxGeometry x="1796.45" y="657.23" width="80" height="50" as="geometry" />
        </mxCell>
        <mxCell id="i6SgQi6mgNQ5JLsOrWUU-471" value="" style="edgeStyle=orthogonalEdgeStyle;rounded=0;orthogonalLoop=1;jettySize=auto;html=1;" edge="1" parent="1" source="i6SgQi6mgNQ5JLsOrWUU-472" target="i6SgQi6mgNQ5JLsOrWUU-468">
          <mxGeometry relative="1" as="geometry" />
        </mxCell>
        <mxCell id="i6SgQi6mgNQ5JLsOrWUU-472" value="Gateway:y&lt;br&gt;Accept" style="rounded=0;whiteSpace=wrap;html=1;fillColor=#d5e8d4;strokeColor=#82b366;" vertex="1" parent="1">
          <mxGeometry x="1796.45" y="724.8100000000002" width="80" height="50" as="geometry" />
        </mxCell>
        <mxCell id="i6SgQi6mgNQ5JLsOrWUU-473" value="" style="endArrow=none;dashed=1;html=1;dashPattern=1 3;strokeWidth=2;" edge="1" parent="1">
          <mxGeometry width="50" height="50" relative="1" as="geometry">
            <mxPoint x="2011" y="834.84" as="sourcePoint" />
            <mxPoint x="1761" y="834.84" as="targetPoint" />
          </mxGeometry>
        </mxCell>
        <mxCell id="i6SgQi6mgNQ5JLsOrWUU-479" value="" style="edgeStyle=orthogonalEdgeStyle;rounded=0;orthogonalLoop=1;jettySize=auto;html=1;" edge="1" parent="1" source="i6SgQi6mgNQ5JLsOrWUU-475">
          <mxGeometry relative="1" as="geometry">
            <mxPoint x="2209.54" y="1520" as="targetPoint" />
          </mxGeometry>
        </mxCell>
        <mxCell id="i6SgQi6mgNQ5JLsOrWUU-475" value="Alice:m+3&lt;br&gt;Finalise" style="rounded=0;whiteSpace=wrap;html=1;fillColor=#f8cecc;strokeColor=#b85450;" vertex="1" parent="1">
          <mxGeometry x="2169.5299999999997" y="1440" width="80.91" height="50" as="geometry" />
        </mxCell>
        <mxCell id="i6SgQi6mgNQ5JLsOrWUU-477" value="" style="edgeStyle=orthogonalEdgeStyle;rounded=0;orthogonalLoop=1;jettySize=auto;html=1;" edge="1" parent="1" source="i6SgQi6mgNQ5JLsOrWUU-476" target="i6SgQi6mgNQ5JLsOrWUU-475">
          <mxGeometry relative="1" as="geometry" />
        </mxCell>
        <mxCell id="i6SgQi6mgNQ5JLsOrWUU-476" value="Gateway:y+q&lt;br&gt;Accept" style="rounded=0;whiteSpace=wrap;html=1;fillColor=#d5e8d4;strokeColor=#82b366;" vertex="1" parent="1">
          <mxGeometry x="2065.54" y="1440.0000000000002" width="80" height="50" as="geometry" />
        </mxCell>
        <mxCell id="i6SgQi6mgNQ5JLsOrWUU-480" value="" style="group" vertex="1" connectable="0" parent="1">
          <mxGeometry x="2179.5299999999984" y="1520" width="60.00000000000023" height="40" as="geometry" />
        </mxCell>
        <mxCell id="i6SgQi6mgNQ5JLsOrWUU-481" value="" style="shape=waypoint;size=6;pointerEvents=1;points=[];fillColor=#ffffff;resizable=0;rotatable=0;perimeter=centerPerimeter;snapToPoint=1;rounded=0;" vertex="1" parent="i6SgQi6mgNQ5JLsOrWUU-480">
          <mxGeometry x="10.000000000000227" width="40" height="40" as="geometry" />
        </mxCell>
        <mxCell id="i6SgQi6mgNQ5JLsOrWUU-482" value="" style="shape=waypoint;size=6;pointerEvents=1;points=[];fillColor=#ffffff;resizable=0;rotatable=0;perimeter=centerPerimeter;snapToPoint=1;rounded=0;" vertex="1" parent="i6SgQi6mgNQ5JLsOrWUU-480">
          <mxGeometry x="20.000000000000227" width="40" height="40" as="geometry" />
        </mxCell>
        <mxCell id="i6SgQi6mgNQ5JLsOrWUU-483" value="" style="shape=waypoint;size=6;pointerEvents=1;points=[];fillColor=#ffffff;resizable=0;rotatable=0;perimeter=centerPerimeter;snapToPoint=1;rounded=0;" vertex="1" parent="i6SgQi6mgNQ5JLsOrWUU-480">
          <mxGeometry width="40" height="40" as="geometry" />
        </mxCell>
        <mxCell id="i6SgQi6mgNQ5JLsOrWUU-484" value="&lt;span style=&quot;font-size: 18px&quot;&gt;2.5 Store block in chain&lt;/span&gt;" style="text;html=1;align=center;verticalAlign=middle;resizable=0;points=[];autosize=1;strokeColor=none;" vertex="1" parent="1">
          <mxGeometry x="1991" y="1510" width="200" height="20" as="geometry" />
        </mxCell>
        <mxCell id="i6SgQi6mgNQ5JLsOrWUU-485" value="" style="endArrow=none;dashed=1;html=1;dashPattern=1 3;strokeWidth=2;" edge="1" parent="1">
          <mxGeometry width="50" height="50" relative="1" as="geometry">
            <mxPoint x="2011" y="1430" as="sourcePoint" />
            <mxPoint x="2441" y="1430" as="targetPoint" />
          </mxGeometry>
        </mxCell>
      </root>
    </mxGraphModel>
  </diagram>
</mxfile>
